<?xml version="1.0" encoding="utf-8"?>
<!-- Generator: Adobe Illustrator 16.0.0, SVG Export Plug-In . SVG Version: 6.00 Build 0)  -->
<!DOCTYPE svg PUBLIC "-//W3C//DTD SVG 1.1//EN" "http://www.w3.org/Graphics/SVG/1.1/DTD/svg11.dtd">
<svg version="1.1" id="Layer_1" xmlns="http://www.w3.org/2000/svg" xmlns:xlink="http://www.w3.org/1999/xlink" x="0px" y="0px" viewBox="0 0 650 394" enable-background="new 0 0 650 394" xml:space="preserve">
<g>
	<g>
		<g>
			<linearGradient id="SVGID_1_" gradientUnits="userSpaceOnUse" x1="210.46" y1="261.4365" x2="651.5554" y2="246.0331">
				<stop  offset="0" style="stop-color:#2295CE"/>
				<stop  offset="1" style="stop-color:#00608B"/>
			</linearGradient>
			<path fill="url(#SVGID_1_)" d="M214.984,391l34.229-185.177c6.173-34.791,10.662-65.093,14.029-89.222h69.582l-5.051,44.33h1.123
				c24.689-35.352,58.358-50.502,93.71-50.502c43.77,0,62.849,27.496,65.093,51.625c24.69-35.352,58.92-51.625,94.271-51.625
				c42.647,0,67.338,26.935,67.338,73.509c0,11.784-2.245,33.107-5.051,47.136L614.518,391h-77.999l27.496-149.825
				c2.244-11.223,3.928-23.007,3.928-33.668c0-19.079-8.417-32.546-27.496-32.546c-26.935,0-53.309,36.474-63.97,91.466L453.47,391
				h-77.999l28.058-150.947c2.244-11.223,3.928-21.885,3.928-31.424c0-18.518-6.173-33.668-25.813-33.668
				c-27.496,0-56.114,38.718-66.215,92.588L292.983,391H214.984z"/>
		</g>
	</g>
	<g>
		<g>
			<linearGradient id="SVGID_2_" gradientUnits="userSpaceOnUse" x1="1" y1="197.8721" x2="286.0601" y2="197.8721">
				<stop  offset="0" style="stop-color:#A8CFE5"/>
				<stop  offset="1" style="stop-color:#76B7D7"/>
			</linearGradient>
			<path fill="url(#SVGID_2_)" d="M27.935,299.72c22.446,13.468,54.431,24.129,89.222,24.129c31.424,0,60.042-14.59,60.042-44.33
				c0-21.323-16.273-35.352-51.064-53.309c-40.402-21.885-78.56-51.064-78.56-100.444c0-76.315,66.776-122.89,149.264-122.89
				c46.014,0,72.949,10.101,89.222,19.079l-25.251,67.337c-12.345-6.734-39.28-17.396-70.704-16.834
				c-37.597,0-57.237,19.079-57.237,39.841c0,21.884,23.007,35.352,54.992,53.309c46.014,24.129,75.193,54.992,75.193,99.883
				c0,84.171-69.582,127.379-153.753,127.379c-52.747,0-90.344-13.468-108.3-26.935L27.935,299.72z"/>
		</g>
	</g>
</g>
</svg>
