<?xml version="1.0" encoding="utf-8"?>
<!-- Generator: Adobe Illustrator 16.0.0, SVG Export Plug-In . SVG Version: 6.00 Build 0)  -->
<!DOCTYPE svg PUBLIC "-//W3C//DTD SVG 1.1//EN" "http://www.w3.org/Graphics/SVG/1.1/DTD/svg11.dtd">
<svg version="1.1" id="Selected_Items" xmlns="http://www.w3.org/2000/svg" xmlns:xlink="http://www.w3.org/1999/xlink" x="0px"
     y="0px" viewBox="0 0 1105 664" enable-background="new 0 0 1105 664" xml:space="preserve">
<linearGradient id="SVGID_1_" gradientUnits="userSpaceOnUse" x1="414.0313" y1="375.1777" x2="1082.4121" y2="490.018">
    <stop  offset="0.0667" style="stop-color:#009FB2"/>
    <stop  offset="0.9725" style="stop-color:#004467"/>
</linearGradient>
<path fill-rule="evenodd" clip-rule="evenodd" fill="url(#SVGID_1_)" d="M1102.4,346.65c-1.834,15.199-3.817,29.05-5.95,41.55
    l-50.9,272.05H912.6L959.65,405.4c1.833-9.634,3.383-19.267,4.649-28.9s1.9-19.1,1.9-28.4c0-16.5-3.733-29.733-11.2-39.7
    c-7.5-9.933-19.333-15.066-35.5-15.4c-23.634,0.633-45.25,14.767-64.85,42.4c-19.934,28.033-34.717,65.716-44.351,113.05
    l-39.149,211.8h-132.5l47.55-256.6c1.833-9.733,3.383-19.101,4.649-28.101c1.267-8.666,1.9-17.066,1.9-25.2
    c0.333-16.166-2.767-29.7-9.3-40.6c-6.533-10.833-18.084-16.417-34.65-16.75c-15.866,0.333-31.233,7.183-46.1,20.55
    c-15,13.367-28.384,31.733-40.15,55.101c-11.566,23.566-20.3,50.75-26.2,81.55l-38.2,210.05h-133.1l58.4-315.05
    c5.267-29.867,9.767-57.534,13.5-83c4.066-25.5,7.5-48.534,10.3-69.1h118.5l-8.35,76.15h1.8c21.166-30.2,45.45-52.15,72.85-65.85
    c27.4-13.7,56.316-20.55,86.75-20.55c24.601,0.333,44.834,4.833,60.7,13.5c16.167,9,28.316,20.183,36.45,33.55
    c7.8,13.4,12.3,27.1,13.5,41.1c21.5-30.167,46.066-52.383,73.7-66.65c27.699-14.333,56.649-21.5,86.85-21.5
    c36.7,0.333,64.85,11.367,84.45,33.1c19.933,21.5,30.05,52.316,30.35,92.45C1104.8,319,1104,331.75,1102.4,346.65z"/>
<linearGradient id="SVGID_2_" gradientUnits="userSpaceOnUse" x1="44.0581" y1="297.7813" x2="461.7831" y2="364.2061">
    <stop  offset="0.102" style="stop-color:#B5E2E8"/>
    <stop  offset="0.9529" style="stop-color:#66C8D4"/>
</linearGradient>
<path fill-rule="evenodd" clip-rule="evenodd" fill="url(#SVGID_2_)" d="M428.4,10.75c24.3,6.533,43.3,13.867,57,22l-43,114.3
    c-10.9-6.2-26.917-12.4-48.05-18.6c-21.167-6.534-45.3-9.8-72.4-9.8c-32,0.533-56.25,7.383-72.75,20.55
    c-16.467,13.066-24.7,28.75-24.7,47.05c0.633,18.067,9.517,34.083,26.65,48.05c17.033,13.7,39.4,27.867,67.1,42.5
    c39.533,20.567,70.633,44.5,93.3,71.8c22.7,27.733,34.217,60.434,34.55,98.101c-0.567,47.866-12.517,87.85-35.85,119.95
    c-23.333,32.333-54.75,56.583-94.25,72.75c-39.267,16.166-83.15,24.25-131.65,24.25c-45.1-0.634-83.217-5.45-114.35-14.45
    s-54.467-19.434-70-31.3L45.75,505c19.6,11.8,42.3,21.6,68.1,29.4c26.133,7.466,54.133,11.366,84,11.699
    c18.066,0,34.867-2.833,50.4-8.5c15.3-5.566,27.767-13.8,37.4-24.699c9.333-11.167,14.15-25.15,14.45-41.95
    c0-17.767-7.167-33.65-21.5-47.65c-14-13.934-35.934-28.399-65.8-43.399c-23.033-12.101-44.667-26.067-64.9-41.9
    c-20.233-15.933-36.566-34.45-49-55.55c-12.733-20.867-19.25-45.333-19.55-73.4c0.633-43.233,12.133-80.533,34.5-111.9
    c22.7-31.167,53.2-55.15,91.5-71.95C243.283,8.733,286.067,0.333,333.7,0C372.233,0.333,403.8,3.917,428.4,10.75z"/>
</svg>
